ply
format ascii 1.0
element vertex 400
property float x
property float y
property float z
property uchar red
property uchar green
property uchar blue
end_header
-40.114321 -344.524203 1885.799279 0 0 255
-40.109253 -344.122536 1886.715050 0 0 255
-40.104186 -343.720868 1887.630822 0 0 255
-40.099118 -343.319201 1888.546593 0 0 255
-40.094051 -342.917534 1889.462365 0 0 255
-40.088983 -342.515866 1890.378137 0 0 255
-40.083916 -342.114199 1891.293908 0 0 255
-40.078848 -341.712531 1892.209680 0 0 255
-40.073781 -341.310864 1893.125451 0 0 255
-40.068714 -340.909197 1894.041223 0 0 255
-40.063646 -340.507529 1894.956994 0 0 255
-40.058579 -340.105862 1895.872766 0 0 255
-40.053511 -339.704194 1896.788538 0 0 255
-40.048444 -339.302527 1897.704309 0 0 255
-40.043376 -338.900859 1898.620081 0 0 255
-40.038309 -338.499192 1899.535852 0 0 255
-40.033241 -338.097525 1900.451624 0 0 255
-40.028174 -337.695857 1901.367396 0 0 255
-40.023107 -337.294190 1902.283167 0 0 255
-40.018039 -336.892522 1903.198939 0 0 255
-40.012972 -336.490855 1904.114710 0 0 255
-40.007904 -336.089188 1905.030482 0 0 255
-40.002837 -335.687520 1905.946254 0 0 255
-39.997769 -335.285853 1906.862025 0 0 255
-39.992702 -334.884185 1907.777797 0 0 255
-39.987634 -334.482518 1908.693568 0 0 255
-39.982567 -334.080851 1909.609340 0 0 255
-39.977500 -333.679183 1910.525112 0 0 255
-39.972432 -333.277516 1911.440883 0 0 255
-39.967365 -332.875848 1912.356655 0 0 255
-39.962297 -332.474181 1913.272426 0 0 255
-39.957230 -332.072513 1914.188198 0 0 255
-39.952162 -331.670846 1915.103970 0 0 255
-39.947095 -331.269179 1916.019741 0 0 255
-39.942027 -330.867511 1916.935513 0 0 255
-39.936960 -330.465844 1917.851284 0 0 255
-39.931893 -330.064176 1918.767056 0 0 255
-39.926825 -329.662509 1919.682827 0 0 255
-39.921758 -329.260842 1920.598599 0 0 255
-39.916690 -328.859174 1921.514371 0 0 255
-39.911623 -328.457507 1922.430142 0 0 255
-39.906555 -328.055839 1923.345914 0 0 255
-39.901488 -327.654172 1924.261685 0 0 255
-39.896420 -327.252504 1925.177457 0 0 255
-39.891353 -326.850837 1926.093229 0 0 255
-39.886285 -326.449170 1927.009000 0 0 255
-39.881218 -326.047502 1927.924772 0 0 255
-39.876151 -325.645835 1928.840543 0 0 255
-39.871083 -325.244167 1929.756315 0 0 255
-39.866016 -324.842500 1930.672087 0 0 255
-39.860948 -324.440833 1931.587858 0 0 255
-39.855881 -324.039165 1932.503630 0 0 255
-39.850813 -323.637498 1933.419401 0 0 255
-39.845746 -323.235830 1934.335173 0 0 255
-39.840678 -322.834163 1935.250945 0 0 255
-39.835611 -322.432496 1936.166716 0 0 255
-39.830544 -322.030828 1937.082488 0 0 255
-39.825476 -321.629161 1937.998259 0 0 255
-39.820409 -321.227493 1938.914031 0 0 255
-39.815341 -320.825826 1939.829803 0 0 255
-39.810274 -320.424158 1940.745574 0 0 255
-39.805206 -320.022491 1941.661346 0 0 255
-39.800139 -319.620824 1942.577117 0 0 255
-39.795071 -319.219156 1943.492889 0 0 255
-39.790004 -318.817489 1944.408660 0 0 255
-39.784937 -318.415821 1945.324432 0 0 255
-39.779869 -318.014154 1946.240204 0 0 255
-39.774802 -317.612487 1947.155975 0 0 255
-39.769734 -317.210819 1948.071747 0 0 255
-39.764667 -316.809152 1948.987518 0 0 255
-39.759599 -316.407484 1949.903290 0 0 255
-39.754532 -316.005817 1950.819062 0 0 255
-39.749464 -315.604149 1951.734833 0 0 255
-39.744397 -315.202482 1952.650605 0 0 255
-39.739330 -314.800815 1953.566376 0 0 255
-39.734262 -314.399147 1954.482148 0 0 255
-39.729195 -313.997480 1955.397920 0 0 255
-39.724127 -313.595812 1956.313691 0 0 255
-39.719060 -313.194145 1957.229463 0 0 255
-39.713992 -312.792478 1958.145234 0 0 255
-39.708925 -312.390810 1959.061006 0 0 255
-39.703857 -311.989143 1959.976778 0 0 255
-39.698790 -311.587475 1960.892549 0 0 255
-39.693723 -311.185808 1961.808321 0 0 255
-39.688655 -310.784141 1962.724092 0 0 255
-39.683588 -310.382473 1963.639864 0 0 255
-39.678520 -309.980806 1964.555636 0 0 255
-39.673453 -309.579138 1965.471407 0 0 255
-39.668385 -309.177471 1966.387179 0 0 255
-39.663318 -308.775803 1967.302950 0 0 255
-39.658250 -308.374136 1968.218722 0 0 255
-39.653183 -307.972469 1969.134493 0 0 255
-39.648116 -307.570801 1970.050265 0 0 255
-39.643048 -307.169134 1970.966037 0 0 255
-39.637981 -306.767466 1971.881808 0 0 255
-39.632913 -306.365799 1972.797580 0 0 255
-39.627846 -305.964132 1973.713351 0 0 255
-39.622778 -305.562464 1974.629123 0 0 255
-39.617711 -305.160797 1975.544895 0 0 255
-39.612643 -304.759129 1976.460666 0 0 255
-39.607576 -304.357462 1977.376438 0 0 255
-39.602509 -303.955794 1978.292209 0 0 255
-39.597441 -303.554127 1979.207981 0 0 255
-39.592374 -303.152460 1980.123753 0 0 255
-39.587306 -302.750792 1981.039524 0 0 255
-39.582239 -302.349125 1981.955296 0 0 255
-39.577171 -301.947457 1982.871067 0 0 255
-39.572104 -301.545790 1983.786839 0 0 255
-39.567036 -301.144123 1984.702611 0 0 255
-39.561969 -300.742455 1985.618382 0 0 255
-39.556901 -300.340788 1986.534154 0 0 255
-39.551834 -299.939120 1987.449925 0 0 255
-39.546767 -299.537453 1988.365697 0 0 255
-39.541699 -299.135786 1989.281469 0 0 255
-39.536632 -298.734118 1990.197240 0 0 255
-39.531564 -298.332451 1991.113012 0 0 255
-39.526497 -297.930783 1992.028783 0 0 255
-39.521429 -297.529116 1992.944555 0 0 255
-39.516362 -297.127448 1993.860326 0 0 255
-39.511294 -296.725781 1994.776098 0 0 255
-39.506227 -296.324114 1995.691870 0 0 255
-39.501160 -295.922446 1996.607641 0 0 255
-39.496092 -295.520779 1997.523413 0 0 255
-39.491025 -295.119111 1998.439184 0 0 255
-39.485957 -294.717444 1999.354956 0 0 255
-39.480890 -294.315777 2000.270728 0 0 255
-39.475822 -293.914109 2001.186499 0 0 255
-39.470755 -293.512442 2002.102271 0 0 255
-39.465687 -293.110774 2003.018042 0 0 255
-39.460620 -292.709107 2003.933814 0 0 255
-39.455553 -292.307439 2004.849586 0 0 255
-39.450485 -291.905772 2005.765357 0 0 255
-39.445418 -291.504105 2006.681129 0 0 255
-39.440350 -291.102437 2007.596900 0 0 255
-39.435283 -290.700770 2008.512672 0 0 255
-39.430215 -290.299102 2009.428444 0 0 255
-39.425148 -289.897435 2010.344215 0 0 255
-39.420080 -289.495768 2011.259987 0 0 255
-39.415013 -289.094100 2012.175758 0 0 255
-39.409946 -288.692433 2013.091530 0 0 255
-39.404878 -288.290765 2014.007302 0 0 255
-39.399811 -287.889098 2014.923073 0 0 255
-39.394743 -287.487431 2015.838845 0 0 255
-39.389676 -287.085763 2016.754616 0 0 255
-39.384608 -286.684096 2017.670388 0 0 255
-39.379541 -286.282428 2018.586159 0 0 255
-39.374473 -285.880761 2019.501931 0 0 255
-39.369406 -285.479093 2020.417703 0 0 255
-39.364339 -285.077426 2021.333474 0 0 255
-39.359271 -284.675759 2022.249246 0 0 255
-39.354204 -284.274091 2023.165017 0 0 255
-39.349136 -283.872424 2024.080789 0 0 255
-39.344069 -283.470756 2024.996561 0 0 255
-39.339001 -283.069089 2025.912332 0 0 255
-39.333934 -282.667422 2026.828104 0 0 255
-39.328866 -282.265754 2027.743875 0 0 255
-39.323799 -281.864087 2028.659647 0 0 255
-39.318732 -281.462419 2029.575419 0 0 255
-39.313664 -281.060752 2030.491190 0 0 255
-39.308597 -280.659084 2031.406962 0 0 255
-39.303529 -280.257417 2032.322733 0 0 255
-39.298462 -279.855750 2033.238505 0 0 255
-39.293394 -279.454082 2034.154277 0 0 255
-39.288327 -279.052415 2035.070048 0 0 255
-39.283259 -278.650747 2035.985820 0 0 255
-39.278192 -278.249080 2036.901591 0 0 255
-39.273124 -277.847413 2037.817363 0 0 255
-39.268057 -277.445745 2038.733135 0 0 255
-39.262990 -277.044078 2039.648906 0 0 255
-39.257922 -276.642410 2040.564678 0 0 255
-39.252855 -276.240743 2041.480449 0 0 255
-39.247787 -275.839076 2042.396221 0 0 255
-39.242720 -275.437408 2043.311992 0 0 255
-39.237652 -275.035741 2044.227764 0 0 255
-39.232585 -274.634073 2045.143536 0 0 255
-39.227517 -274.232406 2046.059307 0 0 255
-39.222450 -273.830738 2046.975079 0 0 255
-39.217383 -273.429071 2047.890850 0 0 255
-39.212315 -273.027404 2048.806622 0 0 255
-39.207248 -272.625736 2049.722394 0 0 255
-39.202180 -272.224069 2050.638165 0 0 255
-39.197113 -271.822401 2051.553937 0 0 255
-39.192045 -271.420734 2052.469708 0 0 255
-39.186978 -271.019067 2053.385480 0 0 255
-39.181910 -270.617399 2054.301252 0 0 255
-39.176843 -270.215732 2055.217023 0 0 255
-39.171776 -269.814064 2056.132795 0 0 255
-39.166708 -269.412397 2057.048566 0 0 255
-39.161641 -269.010729 2057.964338 0 0 255
-39.156573 -268.609062 2058.880110 0 0 255
-39.151506 -268.207395 2059.795881 0 0 255
-39.146438 -267.805727 2060.711653 0 0 255
-39.141371 -267.404060 2061.627424 0 0 255
-39.136303 -267.002392 2062.543196 0 0 255
-39.131236 -266.600725 2063.458968 0 0 255
-39.126169 -266.199058 2064.374739 0 0 255
-39.121101 -265.797390 2065.290511 0 0 255
-39.116034 -265.395723 2066.206282 0 0 255
-39.110966 -264.994055 2067.122054 0 0 255
-39.105899 -264.592388 2068.037825 0 0 255
-39.100831 -264.190721 2068.953597 0 0 255
-39.095764 -263.789053 2069.869369 0 0 255
-39.090696 -263.387386 2070.785140 0 0 255
-39.085629 -262.985718 2071.700912 0 0 255
-39.080562 -262.584051 2072.616683 0 0 255
-39.075494 -262.182383 2073.532455 0 0 255
-39.070427 -261.780716 2074.448227 0 0 255
-39.065359 -261.379049 2075.363998 0 0 255
-39.060292 -260.977381 2076.279770 0 0 255
-39.055224 -260.575714 2077.195541 0 0 255
-39.050157 -260.174046 2078.111313 0 0 255
-39.045089 -259.772379 2079.027085 0 0 255
-39.040022 -259.370712 2079.942856 0 0 255
-39.034955 -258.969044 2080.858628 0 0 255
-39.029887 -258.567377 2081.774399 0 0 255
-39.024820 -258.165709 2082.690171 0 0 255
-39.019752 -257.764042 2083.605943 0 0 255
-39.014685 -257.362374 2084.521714 0 0 255
-39.009617 -256.960707 2085.437486 0 0 255
-39.004550 -256.559040 2086.353257 0 0 255
-38.999482 -256.157372 2087.269029 0 0 255
-38.994415 -255.755705 2088.184801 0 0 255
-38.989348 -255.354037 2089.100572 0 0 255
-38.984280 -254.952370 2090.016344 0 0 255
-38.979213 -254.550703 2090.932115 0 0 255
-38.974145 -254.149035 2091.847887 0 0 255
-38.969078 -253.747368 2092.763658 0 0 255
-38.964010 -253.345700 2093.679430 0 0 255
-38.958943 -252.944033 2094.595202 0 0 255
-38.953875 -252.542366 2095.510973 0 0 255
-38.948808 -252.140698 2096.426745 0 0 255
-38.943740 -251.739031 2097.342516 0 0 255
-38.938673 -251.337363 2098.258288 0 0 255
-38.933606 -250.935696 2099.174060 0 0 255
-38.928538 -250.534028 2100.089831 0 0 255
-38.923471 -250.132361 2101.005603 0 0 255
-38.918403 -249.730694 2101.921374 0 0 255
-38.913336 -249.329026 2102.837146 0 0 255
-38.908268 -248.927359 2103.752918 0 0 255
-38.903201 -248.525691 2104.668689 0 0 255
-38.898133 -248.124024 2105.584461 0 0 255
-38.893066 -247.722357 2106.500232 0 0 255
-38.887999 -247.320689 2107.416004 0 0 255
-38.882931 -246.919022 2108.331776 0 0 255
-38.877864 -246.517354 2109.247547 0 0 255
-38.872796 -246.115687 2110.163319 0 0 255
-38.867729 -245.714019 2111.079090 0 0 255
-38.862661 -245.312352 2111.994862 0 0 255
-38.857594 -244.910685 2112.910634 0 0 255
-38.852526 -244.509017 2113.826405 0 0 255
-38.847459 -244.107350 2114.742177 0 0 255
-38.842392 -243.705682 2115.657948 0 0 255
-38.837324 -243.304015 2116.573720 0 0 255
-38.832257 -242.902348 2117.489491 0 0 255
-38.827189 -242.500680 2118.405263 0 0 255
-38.822122 -242.099013 2119.321035 0 0 255
-38.817054 -241.697345 2120.236806 0 0 255
-38.811987 -241.295678 2121.152578 0 0 255
-38.806919 -240.894011 2122.068349 0 0 255
-38.801852 -240.492343 2122.984121 0 0 255
-38.796785 -240.090676 2123.899893 0 0 255
-38.791717 -239.689008 2124.815664 0 0 255
-38.786650 -239.287341 2125.731436 0 0 255
-38.781582 -238.885673 2126.647207 0 0 255
-38.776515 -238.484006 2127.562979 0 0 255
-38.771447 -238.082339 2128.478751 0 0 255
-38.766380 -237.680671 2129.394522 0 0 255
-38.761312 -237.279004 2130.310294 0 0 255
-38.756245 -236.877336 2131.226065 0 0 255
-38.751178 -236.475669 2132.141837 0 0 255
-38.746110 -236.074002 2133.057609 0 0 255
-38.741043 -235.672334 2133.973380 0 0 255
-38.735975 -235.270667 2134.889152 0 0 255
-38.730908 -234.868999 2135.804923 0 0 255
-38.725840 -234.467332 2136.720695 0 0 255
-38.720773 -234.065664 2137.636467 0 0 255
-38.715705 -233.663997 2138.552238 0 0 255
-38.710638 -233.262330 2139.468010 0 0 255
-38.705571 -232.860662 2140.383781 0 0 255
-38.700503 -232.458995 2141.299553 0 0 255
-38.695436 -232.057327 2142.215324 0 0 255
-38.690368 -231.655660 2143.131096 0 0 255
-38.685301 -231.253993 2144.046868 0 0 255
-38.680233 -230.852325 2144.962639 0 0 255
-38.675166 -230.450658 2145.878411 0 0 255
-38.670098 -230.048990 2146.794182 0 0 255
-38.665031 -229.647323 2147.709954 0 0 255
-38.659964 -229.245656 2148.625726 0 0 255
-38.654896 -228.843988 2149.541497 0 0 255
-38.649829 -228.442321 2150.457269 0 0 255
-38.644761 -228.040653 2151.373040 0 0 255
-38.639694 -227.638986 2152.288812 0 0 255
-38.634626 -227.237318 2153.204584 0 0 255
-38.629559 -226.835651 2154.120355 0 0 255
-38.624491 -226.433984 2155.036127 0 0 255
-38.619424 -226.032316 2155.951898 0 0 255
-38.614356 -225.630649 2156.867670 0 0 255
-38.609289 -225.228981 2157.783442 0 0 255
-38.604222 -224.827314 2158.699213 0 0 255
-38.599154 -224.425647 2159.614985 0 0 255
-38.594087 -224.023979 2160.530756 0 0 255
-38.589019 -223.622312 2161.446528 0 0 255
-38.583952 -223.220644 2162.362300 0 0 255
-38.578884 -222.818977 2163.278071 0 0 255
-38.573817 -222.417309 2164.193843 0 0 255
-38.568749 -222.015642 2165.109614 0 0 255
-38.563682 -221.613975 2166.025386 0 0 255
-38.558615 -221.212307 2166.941157 0 0 255
-38.553547 -220.810640 2167.856929 0 0 255
-38.548480 -220.408972 2168.772701 0 0 255
-38.543412 -220.007305 2169.688472 0 0 255
-38.538345 -219.605638 2170.604244 0 0 255
-38.533277 -219.203970 2171.520015 0 0 255
-38.528210 -218.802303 2172.435787 0 0 255
-38.523142 -218.400635 2173.351559 0 0 255
-38.518075 -217.998968 2174.267330 0 0 255
-38.513008 -217.597301 2175.183102 0 0 255
-38.507940 -217.195633 2176.098873 0 0 255
-38.502873 -216.793966 2177.014645 0 0 255
-38.497805 -216.392298 2177.930417 0 0 255
-38.492738 -215.990631 2178.846188 0 0 255
-38.487670 -215.588963 2179.761960 0 0 255
-38.482603 -215.187296 2180.677731 0 0 255
-38.477535 -214.785629 2181.593503 0 0 255
-38.472468 -214.383961 2182.509275 0 0 255
-38.467401 -213.982294 2183.425046 0 0 255
-38.462333 -213.580626 2184.340818 0 0 255
-38.457266 -213.178959 2185.256589 0 0 255
-38.452198 -212.777292 2186.172361 0 0 255
-38.447131 -212.375624 2187.088132 0 0 255
-38.442063 -211.973957 2188.003904 0 0 255
-38.436996 -211.572289 2188.919676 0 0 255
-38.431928 -211.170622 2189.835447 0 0 255
-38.426861 -210.768954 2190.751219 0 0 255
-38.421794 -210.367287 2191.666990 0 0 255
-38.416726 -209.965620 2192.582762 0 0 255
-38.411659 -209.563952 2193.498534 0 0 255
-38.406591 -209.162285 2194.414305 0 0 255
-38.401524 -208.760617 2195.330077 0 0 255
-38.396456 -208.358950 2196.245848 0 0 255
-38.391389 -207.957283 2197.161620 0 0 255
-38.386321 -207.555615 2198.077392 0 0 255
-38.381254 -207.153948 2198.993163 0 0 255
-38.376187 -206.752280 2199.908935 0 0 255
-38.371119 -206.350613 2200.824706 0 0 255
-38.366052 -205.948946 2201.740478 0 0 255
-38.360984 -205.547278 2202.656250 0 0 255
-38.355917 -205.145611 2203.572021 0 0 255
-38.350849 -204.743943 2204.487793 0 0 255
-38.345782 -204.342276 2205.403564 0 0 255
-38.340714 -203.940608 2206.319336 0 0 255
-38.335647 -203.538941 2207.235108 0 0 255
-38.330579 -203.137274 2208.150879 0 0 255
-38.325512 -202.735606 2209.066651 0 0 255
-38.320445 -202.333939 2209.982422 0 0 255
-38.315377 -201.932271 2210.898194 0 0 255
-38.310310 -201.530604 2211.813965 0 0 255
-38.305242 -201.128937 2212.729737 0 0 255
-38.300175 -200.727269 2213.645509 0 0 255
-38.295107 -200.325602 2214.561280 0 0 255
-38.290040 -199.923934 2215.477052 0 0 255
-38.284972 -199.522267 2216.392823 0 0 255
-38.279905 -199.120599 2217.308595 0 0 255
-38.274838 -198.718932 2218.224367 0 0 255
-38.269770 -198.317265 2219.140138 0 0 255
-38.264703 -197.915597 2220.055910 0 0 255
-38.259635 -197.513930 2220.971681 0 0 255
-38.254568 -197.112262 2221.887453 0 0 255
-38.249500 -196.710595 2222.803225 0 0 255
-38.244433 -196.308928 2223.718996 0 0 255
-38.239365 -195.907260 2224.634768 0 0 255
-38.234298 -195.505593 2225.550539 0 0 255
-38.229231 -195.103925 2226.466311 0 0 255
-38.224163 -194.702258 2227.382083 0 0 255
-38.219096 -194.300591 2228.297854 0 0 255
-38.214028 -193.898923 2229.213626 0 0 255
-38.208961 -193.497256 2230.129397 0 0 255
-38.203893 -193.095588 2231.045169 0 0 255
-38.198826 -192.693921 2231.960941 0 0 255
-38.193758 -192.292253 2232.876712 0 0 255
-38.188691 -191.890586 2233.792484 0 0 255
-38.183624 -191.488919 2234.708255 0 0 255
-38.178556 -191.087251 2235.624027 0 0 255
-38.173489 -190.685584 2236.539798 0 0 255
-38.168421 -190.283916 2237.455570 0 0 255
-38.163354 -189.882249 2238.371342 0 0 255
-38.158286 -189.480582 2239.287113 0 0 255
-38.153219 -189.078914 2240.202885 0 0 255
-38.148151 -188.677247 2241.118656 0 0 255
-38.143084 -188.275579 2242.034428 0 0 255
-38.138017 -187.873912 2242.950200 0 0 255
-38.132949 -187.472244 2243.865971 0 0 255
-38.127882 -187.070577 2244.781743 0 0 255
-38.122814 -186.668910 2245.697514 0 0 255
-38.117747 -186.267242 2246.613286 0 0 255
-38.112679 -185.865575 2247.529058 0 0 255
-38.107612 -185.463907 2248.444829 0 0 255
-38.102544 -185.062240 2249.360601 0 0 255
-38.097477 -184.660573 2250.276372 0 0 255
-38.092410 -184.258905 2251.192144 0 0 255

